<?xml version="1.0" encoding="UTF-8"?>
<svg id="Layer_2" data-name="Layer 2" xmlns="http://www.w3.org/2000/svg" viewBox="0 0 19.35 19.35">
  <defs>
    <style>
      .cls-1 {
        fill: #ed1c24;
        stroke-width: 0px;
      }
    </style>
  </defs>
  <g id="Layer_1-2" data-name="Layer 1">
    <path class="cls-1" d="M9.68,0C4.33,0,0,4.33,0,9.68s4.33,9.68,9.68,9.68,9.68-4.33,9.68-9.68C19.35,4.33,15.02,0,9.68,0ZM12.27,5.64h-5.2c.68-1.35,1.56-2.6,2.6-3.7,1.04,1.1,1.91,2.35,2.6,3.7ZM12.92,7.26c.25.78.38,1.6.38,2.42,0,.82-.14,1.64-.38,2.42h-6.49c-.25-.78-.38-1.6-.38-2.42,0-.82.14-1.64.38-2.42h6.49ZM7.58,1.9c-.93,1.14-1.7,2.4-2.28,3.74h-2.6c1.07-1.84,2.82-3.19,4.88-3.74ZM1.61,9.68c0-.82.13-1.64.37-2.42h2.77c-.21.79-.32,1.6-.32,2.42,0,.82.11,1.63.32,2.42H1.98c-.25-.78-.37-1.6-.37-2.42ZM2.7,13.71h2.6c.58,1.35,1.35,2.61,2.28,3.74-2.05-.56-3.81-1.9-4.88-3.74ZM7.08,13.71h5.2c-.68,1.35-1.56,2.6-2.6,3.7-1.04-1.1-1.91-2.35-2.6-3.7ZM11.78,17.45c.93-1.14,1.69-2.4,2.27-3.74h2.6c-1.07,1.84-2.82,3.19-4.87,3.74h0ZM17.74,9.68c0,.82-.13,1.64-.37,2.42h-2.77c.21-.79.32-1.6.32-2.42,0-.82-.11-1.63-.32-2.42h2.77c.25.78.37,1.6.37,2.42ZM14.05,5.64c-.58-1.35-1.35-2.61-2.27-3.74,2.05.56,3.8,1.9,4.87,3.74h-2.6Z"/>
  </g>
</svg>