<?xml version="1.0" encoding="UTF-8"?>
<svg id="Layer_2" data-name="Layer 2" xmlns="http://www.w3.org/2000/svg" viewBox="0 0 18.51 16.97">
  <defs>
    <style>
      .cls-1 {
        fill: #ed1c24;
        stroke-width: 0px;
      }
    </style>
  </defs>
  <g id="Layer_1-2" data-name="Layer 1">
    <path class="cls-1" d="M14.66,0H3.86C1.73,0,0,1.73,0,3.86v9.26c0,2.13,1.73,3.85,3.86,3.86h10.8c2.13,0,3.85-1.73,3.86-3.86V3.86c0-2.13-1.73-3.85-3.86-3.86ZM3.86,1.54h10.8c.95,0,1.79.58,2.14,1.46l-5.91,5.91c-.91.9-2.37.9-3.27,0L1.71,3c.35-.88,1.2-1.45,2.14-1.46ZM14.66,15.43H3.86c-1.28,0-2.31-1.04-2.31-2.31V5.01l4.99,4.98c1.51,1.5,3.95,1.5,5.46,0l4.99-4.98v8.1c0,1.28-1.04,2.31-2.31,2.31Z"/>
  </g>
</svg>