<?xml version="1.0" encoding="UTF-8"?>
<svg id="Layer_2" data-name="Layer 2" xmlns="http://www.w3.org/2000/svg" viewBox="0 0 21.28 21.28">
  <defs>
    <style>
      .cls-1 {
        fill: #ed1c24;
        stroke-width: 0px;
      }
    </style>
  </defs>
  <g id="Layer_1-2" data-name="Layer 1">
    <path class="cls-1" d="M19.66,1.61l-.93-.81c-1.07-1.07-2.81-1.07-3.88,0-.03.03-1.67,2.16-1.67,2.16-1.01,1.06-1.01,2.74,0,3.79l1.03,1.29c-1.29,2.93-3.31,4.96-6.14,6.16l-1.29-1.04c-1.05-1.02-2.74-1.02-3.79,0,0,0-2.14,1.64-2.16,1.67-1.07,1.07-1.07,2.81-.04,3.84l.89,1.02c1.02,1.02,2.39,1.58,3.88,1.58,6.77,0,15.74-8.98,15.74-15.74,0-1.48-.56-2.86-1.62-3.92h0ZM5.53,19.5c-1.01,0-1.94-.37-2.58-1.02l-.89-1.02c-.36-.36-.38-.96-.04-1.34,0,0,2.12-1.63,2.15-1.66.36-.36,1-.36,1.37,0,.03.03,1.81,1.45,1.81,1.45.25.2.58.25.87.13,3.67-1.4,6.3-4.02,7.82-7.81.12-.29.07-.63-.13-.89,0,0-1.43-1.79-1.44-1.81-.38-.38-.38-.99,0-1.37.03-.03,1.66-2.15,1.66-2.15.38-.35.98-.34,1.38.07l.93.81c.68.68,1.06,1.61,1.06,2.62,0,6.17-8.66,13.97-13.97,13.97h0Z"/>
  </g>
</svg>