<?xml version="1.0" encoding="UTF-8"?>
<svg id="Layer_2" data-name="Layer 2" xmlns="http://www.w3.org/2000/svg" viewBox="0 0 15.89 23.83">
  <defs>
    <style>
      .cls-1 {
        fill: #ed1c24;
        stroke-width: 0px;
      }
    </style>
  </defs>
  <g id="Layer_1-2" data-name="Layer 1">
    <path class="cls-1" d="M10.97,0S4.95,0,4.92,0C2.2.02,0,2.24,0,4.96v13.9c0,2.74,2.23,4.96,4.96,4.96h5.96c2.74,0,4.96-2.23,4.96-4.96V4.97C15.89,2.24,13.68.03,10.97,0ZM13.9,18.87c0,1.64-1.34,2.98-2.98,2.98h-5.96c-1.64,0-2.98-1.34-2.98-2.98V4.97c0-1.44,1.03-2.65,2.39-2.92l.69,1.38c.17.34.51.55.89.55h3.97c.38,0,.72-.21.89-.55l.69-1.38c1.36.27,2.39,1.48,2.39,2.92v13.9h0ZM8.94,19.86h-1.99c-.55,0-.99-.44-.99-.99h0c0-.55.44-.99.99-.99h1.99c.55,0,.99.44.99.99h0c0,.55-.44.99-.99.99Z"/>
  </g>
</svg>